<svg xmlns="http://www.w3.org/2000/svg" viewBox="0 0 600 530"><path d="M395.23,313.71,528.84,519.13A7,7,0,0,1,522.92,530h-56c-20.5,0-38.12-9.55-49.28-26.71L305.21,330.43a22.9,22.9,0,0,0-19.71-10.69H11.8a11.5,11.5,0,0,1-10.42-6.31,11.45,11.45,0,0,1,.77-12.12l37.64-54a11.43,11.43,0,0,1,9.65-5H323.62a89.22,89.22,0,0,0,19.28-2q55.83-11.73,60.37-70.54c.18-2.32.24-4.29.2-6.61q-.77-45-44.93-58.59a44.66,44.66,0,0,0-13.76-2.06H115.29a11.73,11.73,0,0,1-9.64-18.44L148.2,23a11.43,11.43,0,0,1,9.64-5H342.43a134,134,0,0,1,36.4,4.8q95.49,25.61,106.86,130.55a134.28,134.28,0,0,1-.45,34.11Q475,263.63,397.89,303.63a7,7,0,0,0-2.66,10.08Z" fill="#2d4bc8"/><path d="M542.5,115A57.5,57.5,0,1,0,485,57.5,57.61,57.61,0,0,0,542.5,115Z" fill="#202020" fill-rule="evenodd"/><path d="M118.18,199.48l22.57-42.23a8.56,8.56,0,0,1,7.68-4.75H293.15a8.4,8.4,0,0,1,6.81,3.41,9.52,9.52,0,0,1,1.87,7.75l-7.64,42.23a8.91,8.91,0,0,1-8.67,7.61H125.87a8.55,8.55,0,0,1-7.64-4.66,9.7,9.7,0,0,1,0-9.36Z" fill="#202020" fill-rule="evenodd"/><path d="M97.26,411.48l23.94-42.23a9.18,9.18,0,0,1,8.16-4.75H257.61a9.39,9.39,0,0,1,9.21,11.16l-8.1,42.23a9.31,9.31,0,0,1-9.21,7.61H105.41a9.38,9.38,0,0,1-8.15-14Z" fill="#202020" fill-rule="evenodd"/></svg>